<svg xmlns="http://www.w3.org/2000/svg" xmlns:xlink="http://www.w3.org/1999/xlink" width="530px" height="400px" viewBox="0 0 1286 964" version="1.1">
    <g id="Page-1" stroke="none" stroke-width="1" fill="none" fill-rule="evenodd">
        <g id="Libra" transform="translate(3.000000, 3.000000)" stroke="#FFFFFF" stroke-width="5">
            <g id="Group" transform="translate(640.000000, 479.000000) scale(-1, 1) rotate(-180.000000) translate(-640.000000, -479.000000) translate(0.000000, -0.000000)">
                <path d="M610.5,956.9 C521.9,950.1 447.3,917.5 381,856.8 C357.2,835 334.2,808.7 318.2,784.9 C284.9,735.2 266.9,685.6 259.8,623.5 C258.1,609 258.2,564.3 259.8,552 C263.4,525.5 268.8,503.7 277,482 C291.2,444.3 316.7,404.4 346.7,372.9 C350.7,368.7 354,365 354,364.6 C354,364.3 274.4,364 177,364 L-9.46377755e-15,364 L-9.46377755e-15,304.5 L-9.46377755e-15,245 L253,245 L506,245 L506,300.4 L506,355.8 L493.3,364.8 C450.9,395 420.7,429.3 401.9,468.5 C384.6,504.7 377.7,536.4 377.7,580.5 C377.6,646.9 398.9,700.8 445.3,751.9 C491.5,802.8 550.4,832.4 616.3,837.9 C685.9,843.8 748.6,825.2 802.3,782.8 C814.4,773.2 838.8,749 848.4,737 C871,708.7 887.4,676.1 895.6,643 C900.7,622.4 902.1,610.9 902.7,586 C903.8,540.3 896.5,505.5 878,467.5 C859,428.7 829,394.9 786.9,364.9 L774,355.8 L774,300.4 L774,245 L1027,245 L1280,245 L1280,304.5 L1280,364 L1102.9,364 L925.9,364 L935.2,374.3 C951.9,392.6 962.9,406.7 974.7,425 C999.8,464 1014.1,503.1 1020.5,550.3 C1023.1,569.6 1022.6,609.7 1019.5,634.5 C1009.4,713.3 974.3,782.8 914.5,842.5 C850.1,906.8 777.3,943.8 693.9,954.5 C667.2,957.9 635,958.8 610.5,956.9 Z" id="Path" fill-rule="nonzero"/>
                <path d="M 5 108 5 5.77315973e-15 1275 -1.13686838e-13 1275 108z"/>
            </g>
        </g>
    </g>
</svg>
